<?xml version="1.0" encoding="UTF-8" standalone="no"?>
<!DOCTYPE svg PUBLIC "-//W3C//DTD SVG 1.1//EN" "http://www.w3.org/Graphics/SVG/1.1/DTD/svg11.dtd">
<!-- 由 Microsoft Visio, SVG Export 生成 系统虚拟化.svg Page-1 -->
<svg xmlns="http://www.w3.org/2000/svg" xmlns:xlink="http://www.w3.org/1999/xlink" xmlns:ev="http://www.w3.org/2001/xml-events"
		xmlns:v="http://schemas.microsoft.com/visio/2003/SVGExtensions/" width="11.6929in" height="8.26772in"
		viewBox="0 0 841.89 595.276" xml:space="preserve" color-interpolation-filters="sRGB" class="st12">
	<v:documentProperties v:langID="2052" v:metric="true" v:viewMarkup="false">
		<v:userDefs>
			<v:ud v:nameU="msvSubprocessMaster" v:prompt="" v:val="VT4(Rectangle)"/>
			<v:ud v:nameU="msvNoAutoConnect" v:val="VT0(1):26"/>
		</v:userDefs>
	</v:documentProperties>

	<style type="text/css">
	<![CDATA[
		.st1 {fill:#4672c4;stroke:#c7c8c8;stroke-width:0.25}
		.st2 {fill:#feffff;font-family:Calibri;font-size:2.50001em}
		.st3 {fill:#696f6f;stroke:none;stroke-linecap:butt;stroke-width:0.09375}
		.st4 {fill:#ffffff;stroke:none;stroke-linecap:butt;stroke-width:0.09375}
		.st5 {fill:#21a4d4;stroke:none;stroke-linecap:butt;stroke-width:0.09375}
		.st6 {fill:#384244;stroke:none;stroke-linecap:butt;stroke-width:0.09375}
		.st7 {fill:#000000;stroke:none;stroke-linecap:butt;stroke-width:0.09375}
		.st8 {fill:none;stroke:#c7c8c8;stroke-width:0.25}
		.st9 {fill:#1296db;stroke:none;stroke-linecap:butt;stroke-width:0.09375}
		.st10 {fill:#1afa29;stroke:none;stroke-linecap:butt;stroke-width:0.09375}
		.st11 {fill:#2a5699;stroke:none;stroke-linecap:butt;stroke-width:0.09375}
		.st12 {fill:none;fill-rule:evenodd;font-size:12px;overflow:visible;stroke-linecap:square;stroke-miterlimit:3}
	]]>
	</style>

	<g v:mID="0" v:index="1" v:groupContext="foregroundPage">
		<v:userDefs>
			<v:ud v:nameU="msvThemeOrder" v:val="VT0(0):26"/>
		</v:userDefs>
		<title>页-1</title>
		<v:pageProperties v:drawingScale="0.0393701" v:pageScale="0.0393701" v:drawingUnits="24" v:shadowOffsetX="9"
				v:shadowOffsetY="-9"/>
		<g id="shape31-1" v:mID="31" v:groupContext="shape" transform="translate(293.196,-223.228)">
			<title>圆角矩形.31</title>
			<desc>Hypervisor</desc>
			<v:userDefs>
				<v:ud v:nameU="CTypeTopLeftSnip" v:prompt="" v:val="VT0(0):5"/>
				<v:ud v:nameU="CTypeTopRightSnip" v:prompt="" v:val="VT0(0):5"/>
				<v:ud v:nameU="CTypeBotLeftSnip" v:prompt="" v:val="VT0(0):5"/>
				<v:ud v:nameU="CTypeBotRightSnip" v:prompt="" v:val="VT0(0):5"/>
				<v:ud v:nameU="CornerLockHoriz" v:prompt="" v:val="VT0(1):5"/>
				<v:ud v:nameU="CornerLockVert" v:prompt="" v:val="VT0(1):5"/>
				<v:ud v:nameU="CornerLockDiag" v:prompt="" v:val="VT0(0):5"/>
				<v:ud v:nameU="TopLeftOffset" v:prompt="" v:val="VT0(0.15748031496063):24"/>
				<v:ud v:nameU="TopRightOffset" v:prompt="" v:val="VT0(0.15748031496063):24"/>
				<v:ud v:nameU="BotLeftOffset" v:prompt="" v:val="VT0(0.15748031496063):24"/>
				<v:ud v:nameU="BotRightOffset" v:prompt="" v:val="VT0(0.15748031496063):24"/>
				<v:ud v:nameU="visVersion" v:prompt="" v:val="VT0(15):26"/>
				<v:ud v:nameU="TopLeftOffset" v:prompt="" v:val="VT0(0.29921259903337):1"/>
				<v:ud v:nameU="TopRightOffset" v:prompt="" v:val="VT0(0.29921259903337):1"/>
				<v:ud v:nameU="BotLeftOffset" v:prompt="" v:val="VT0(0.29921259903337):1"/>
				<v:ud v:nameU="BotRightOffset" v:prompt="" v:val="VT0(0.29921259903337):1"/>
			</v:userDefs>
			<v:textBlock v:margins="rect(4,4,4,4)" v:tabSpace="42.5197"/>
			<v:textRect cx="107.717" cy="552.756" width="215.44" height="85.0394"/>
			<path d="M21.54 595.28 L193.89 595.28 A21.543 21.543 -180 0 0 215.43 573.73 L215.43 531.78 A21.543 21.543 -180 0 0 193.89
						 510.24 L21.54 510.24 A21.543 21.543 -180 0 0 0 531.78 L0 573.73 A21.543 21.543 -180 0 0 21.54 595.28 Z"
					class="st1"/>
			<text x="41.78" y="561.76" class="st2" v:langID="1033"><v:paragraph v:horizAlign="1"/><v:tabList/>Hypervisor</text>		</g>
		<g id="group39-4" transform="translate(193.984,-92.126)" v:mID="39" v:groupContext="group">
			<title>工作表.39</title>
			<g id="group2-5" transform="translate(182.781,-27.5221)" v:mID="2" v:groupContext="group">
				<title>工作表.2</title>
				<g id="shape3-6" v:mID="3" v:groupContext="shape">
					<title>工作表.3</title>
					<path d="M70.01 561.48 L72.43 561.48 L72.43 553.14 L0 553.14 L0 561.48 L2.57 561.48 L2.57 572.62 L0 572.62 L0
								 595.28 L6.52 595.28 L6.52 589.86 L7.9 587.6 L9.85 587.6 L11.23 589.86 L11.23 595.28 L14.35 595.28
								 L14.35 589.86 L15.73 587.6 L17.67 587.6 L19.05 589.86 L19.05 595.28 L22.17 595.28 L22.17 589.86
								 L23.55 587.6 L25.5 587.6 L26.88 589.86 L26.88 595.28 L30 595.28 L30 589.86 L31.38 587.6 L33.33 587.6
								 L34.71 589.86 L34.71 595.28 L37.83 595.28 L37.83 589.86 L39.21 587.6 L41.15 587.6 L42.53 589.86
								 L42.53 595.28 L45.65 595.28 L45.65 589.86 L47.03 587.6 L48.98 587.6 L50.36 589.86 L50.36 595.28
								 L53.48 595.28 L53.48 589.86 L54.86 587.6 L56.81 587.6 L58.18 589.86 L58.18 595.28 L61.31 595.28
								 L61.31 589.86 L62.68 587.6 L64.63 587.6 L66.01 589.86 L66.01 595.28 L72.43 595.28 L72.43 572.62
								 L70.01 572.62 L70.01 561.48 Z" class="st3"/>
				</g>
				<g id="shape4-8" v:mID="4" v:groupContext="shape" transform="translate(55.206,-14.7464)">
					<title>工作表.4</title>
					<rect x="0" y="577.276" width="9.10613" height="18.0001" class="st4"/>
				</g>
				<g id="shape5-10" v:mID="5" v:groupContext="shape" transform="translate(56.2717,-16.181)">
					<title>工作表.5</title>
					<rect x="0" y="580.144" width="6.97516" height="15.1315" class="st5"/>
				</g>
				<g id="shape6-12" v:mID="6" v:groupContext="shape" transform="translate(43.4345,-14.7464)">
					<title>工作表.6</title>
					<rect x="0" y="577.276" width="9.10575" height="18.0001" class="st4"/>
				</g>
				<g id="shape7-14" v:mID="7" v:groupContext="shape" transform="translate(44.5001,-16.181)">
					<title>工作表.7</title>
					<rect x="0" y="580.144" width="6.97486" height="15.1315" class="st5"/>
				</g>
				<g id="shape8-16" v:mID="8" v:groupContext="shape" transform="translate(31.6627,-14.7464)">
					<title>工作表.8</title>
					<rect x="0" y="577.276" width="9.10605" height="18.0001" class="st4"/>
				</g>
				<g id="shape9-18" v:mID="9" v:groupContext="shape" transform="translate(32.7283,-16.181)">
					<title>工作表.9</title>
					<rect x="0" y="580.144" width="6.97449" height="15.1315" class="st5"/>
				</g>
				<g id="shape10-20" v:mID="10" v:groupContext="shape" transform="translate(19.8913,-14.7464)">
					<title>工作表.10</title>
					<rect x="0" y="577.276" width="9.10568" height="18.0001" class="st4"/>
				</g>
				<g id="shape11-22" v:mID="11" v:groupContext="shape" transform="translate(20.9566,-16.181)">
					<title>工作表.11</title>
					<rect x="0" y="580.144" width="6.97508" height="15.1315" class="st5"/>
				</g>
				<g id="shape12-24" v:mID="12" v:groupContext="shape" transform="translate(8.11911,-14.7464)">
					<title>工作表.12</title>
					<rect x="0" y="577.276" width="9.10635" height="18.0001" class="st4"/>
				</g>
				<g id="shape13-26" v:mID="13" v:groupContext="shape" transform="translate(9.18537,-16.181)">
					<title>工作表.13</title>
					<rect x="0" y="580.144" width="6.97449" height="15.1315" class="st5"/>
				</g>
				<g id="shape14-28" v:mID="14" v:groupContext="shape" transform="translate(0,-36.5423)">
					<title>工作表.14</title>
					<rect x="0" y="587.649" width="72.4315" height="7.62619" class="st6"/>
				</g>
			</g>
			<g id="group15-30" transform="translate(276.472,-17.9263)" v:mID="15" v:groupContext="group">
				<title>工作表.15</title>
				<g id="shape16-31" v:mID="16" v:groupContext="shape">
					<title>工作表.16</title>
					<path d="M62.78 531.92 C64.96 531.92 66.62 532.22 67.78 532.83 C68.93 533.44 69.92 534.6 70.75 536.33 C71.07
								 537.04 71.58 538.12 72.29 539.6 C72.99 541.07 73.79 542.73 74.69 544.59 C75.58 546.44 76.51 548.41
								 77.47 550.49 C78.43 552.57 79.34 554.54 80.21 556.4 C81.07 558.25 81.84 559.9 82.51 561.34 C83.18
								 562.78 83.65 563.82 83.9 564.46 C84.22 565.16 84.5 565.69 84.72 566.04 C84.94 566.4 85.14 566.78
								 85.3 567.2 C85.46 567.61 85.57 568.11 85.63 568.68 C85.7 569.26 85.73 570.06 85.73 571.08 C85.73
								 571.85 85.71 573.04 85.68 574.64 C85.65 576.24 85.63 577.93 85.63 579.72 L85.63 585.1 L85.63 588.84
								 C85.63 590.64 85.1 592.16 84.05 593.4 C82.99 594.65 81.47 595.28 79.49 595.28 L5.76 595.28 C3.9
								 595.28 2.5 594.68 1.54 593.5 C0.58 592.32 0.06 590.8 0 588.94 L0 585.58 C0 584.11 0.02 582.54 0.05
								 580.88 C0.08 579.21 0.1 577.55 0.1 575.88 L0.1 571.85 C0.1 570.76 0.11 569.9 0.14 569.26 C0.18 568.62
								 0.26 568.06 0.38 567.58 C0.51 567.1 0.66 566.6 0.82 566.09 C0.98 565.58 1.22 564.94 1.54 564.17
								 C1.73 563.66 2.14 562.68 2.78 561.24 C3.42 559.8 4.19 558.16 5.09 556.3 C5.98 554.44 6.96 552.46
								 8.02 550.35 C9.07 548.24 10.06 546.24 10.99 544.35 C11.92 542.46 12.77 540.78 13.54 539.31 L15.07
								 536.14 C15.9 534.48 16.93 533.36 18.14 532.78 C19.36 532.2 20.8 531.92 22.46 531.92 L62.78 531.92
								 ZM79.39 572.81 C79.39 570.89 78.5 569.93 76.7 569.93 L8.74 570.03 C7.65 570.03 6.82 570.33 6.24
								 570.94 C5.66 571.55 5.38 572.33 5.38 573.29 L5.38 586.92 C5.38 587.69 5.58 588.33 6 588.84 C6.42
								 589.36 7.07 589.61 7.97 589.61 L76.32 589.71 C77.6 589.71 78.43 589.4 78.82 588.8 C79.2 588.19 79.39
								 587.44 79.39 586.54 L79.39 572.81 ZM22.85 536.91 C21.95 536.91 21.2 537.21 20.59 537.82 C19.98 538.43
								 19.68 539.18 19.68 540.08 C19.68 540.97 19.98 541.72 20.59 542.33 C21.2 542.94 21.95 543.24 22.85
								 543.24 C23.74 543.24 24.48 542.94 25.06 542.33 C25.63 541.72 25.92 540.97 25.92 540.08 C25.92 539.18
								 25.63 538.43 25.06 537.82 C24.48 537.21 23.74 536.91 22.85 536.91 ZM15.46 554.19 C14.56 554.19 13.81
								 554.49 13.2 555.1 C12.59 555.71 12.29 556.46 12.29 557.36 C12.29 558.25 12.59 559 13.2 559.61 C13.81
								 560.22 14.56 560.52 15.46 560.52 C16.35 560.52 17.1 560.22 17.71 559.61 C18.32 559 18.62 558.25
								 18.62 557.36 C18.62 556.46 18.32 555.71 17.71 555.1 C17.1 554.49 16.35 554.19 15.46 554.19 ZM59.62
								 540.08 C59.62 540.97 59.9 541.72 60.48 542.33 C61.06 542.94 61.79 543.24 62.69 543.24 C63.58 543.24
								 64.34 542.94 64.94 542.33 C65.55 541.72 65.86 540.97 65.86 540.08 C65.86 539.18 65.55 538.43 64.94
								 537.82 C64.34 537.21 63.58 536.91 62.69 536.91 C61.79 536.91 61.06 537.21 60.48 537.82 C59.9 538.43
								 59.62 539.18 59.62 540.08 ZM66.91 557.36 C66.91 558.25 67.22 559 67.82 559.61 C68.43 560.22 69.18
								 560.52 70.08 560.52 C70.98 560.52 71.71 560.22 72.29 559.61 C72.86 559 73.15 558.25 73.15 557.36
								 C73.15 556.46 72.86 555.71 72.29 555.1 C71.71 554.49 70.98 554.19 70.08 554.19 C69.18 554.19 68.43
								 554.49 67.82 555.1 C67.22 555.71 66.91 556.46 66.91 557.36 ZM17.18 586.92 L14.3 586.92 L14.3 573.29
								 L17.18 573.29 L17.18 586.92 ZM25.92 586.92 L23.04 586.92 L23.04 573.29 L25.92 573.29 L25.92 586.92
								 ZM34.75 586.92 L31.87 586.92 L31.87 573.29 L34.75 573.29 L34.75 586.92 ZM43.49 586.92 L40.61 586.92
								 L40.61 573.29 L43.49 573.29 L43.49 586.92 ZM52.51 586.92 L49.63 586.92 L49.63 573.29 L52.51 573.29
								 L52.51 586.92 ZM61.44 586.92 L58.56 586.92 L58.56 573.29 L61.44 573.29 L61.44 586.92 ZM69.89 586.92
								 L67.01 586.92 L67.01 573.29 L69.89 573.29 L69.89 586.92 Z" class="st7"/>
				</g>
			</g>
			<g id="group17-33" transform="translate(70.8661,-13.3906)" v:mID="17" v:groupContext="group">
				<title>工作表.17</title>
				<g id="shape18-34" v:mID="18" v:groupContext="shape" transform="translate(8.06531,-8.06541)">
					<title>工作表.18</title>
					<rect x="0" y="538.976" width="56.3007" height="56.2995" class="st6"/>
				</g>
				<g id="shape19-36" v:mID="19" v:groupContext="shape" transform="translate(15.4842,-15.4834)">
					<title>工作表.19</title>
					<rect x="0" y="553.812" width="41.4631" height="41.4638" class="st4"/>
				</g>
				<g id="shape20-38" v:mID="20" v:groupContext="shape" transform="translate(18.7352,-64.3649)">
					<title>工作表.20</title>
					<path d="M0 587.21 L2.12 587.21 L2.12 595.28 L0 595.28 L0 587.21 ZM4.69 587.21 L6.81 587.21 L6.81 595.28 L4.69
								 595.28 L4.69 587.21 ZM9.38 587.21 L11.5 587.21 L11.5 595.28 L9.38 595.28 L9.38 587.21 ZM14.08 587.21
								 L16.19 587.21 L16.19 595.28 L14.08 595.28 L14.08 587.21 ZM18.77 587.21 L20.89 587.21 L20.89 595.28
								 L18.77 595.28 L18.77 587.21 ZM23.46 587.21 L25.58 587.21 L25.58 595.28 L23.46 595.28 L23.46 587.21
								 ZM28.15 587.21 L30.27 587.21 L30.27 595.28 L28.15 595.28 L28.15 587.21 ZM32.84 587.21 L34.96 587.21
								 L34.96 595.28 L32.84 595.28 L32.84 587.21 Z" class="st3"/>
				</g>
				<g id="shape21-40" v:mID="21" v:groupContext="shape" transform="translate(18.7352,0)">
					<title>工作表.21</title>
					<path d="M0 587.21 L2.12 587.21 L2.12 595.28 L0 595.28 L0 587.21 ZM4.69 587.21 L6.81 587.21 L6.81 595.28 L4.69
								 595.28 L4.69 587.21 ZM9.38 587.21 L11.5 587.21 L11.5 595.28 L9.38 595.28 L9.38 587.21 ZM14.08 587.21
								 L16.19 587.21 L16.19 595.28 L14.08 595.28 L14.08 587.21 ZM18.77 587.21 L20.89 587.21 L20.89 595.28
								 L18.77 595.28 L18.77 587.21 ZM23.46 587.21 L25.58 587.21 L25.58 595.28 L23.46 595.28 L23.46 587.21
								 ZM28.15 587.21 L30.27 587.21 L30.27 595.28 L28.15 595.28 L28.15 587.21 ZM32.84 587.21 L34.96 587.21
								 L34.96 595.28 L32.84 595.28 L32.84 587.21 Z" class="st3"/>
				</g>
				<g id="shape22-42" v:mID="22" v:groupContext="shape" transform="translate(64.366,-18.735)">
					<title>工作表.22</title>
					<path d="M0 560.31 L8.07 560.31 L8.07 562.43 L0 562.43 L0 560.31 ZM0 565.01 L8.07 565.01 L8.07 567.12 L0 567.12
								 L0 565.01 ZM0 569.7 L8.07 569.7 L8.07 571.82 L0 571.82 L0 569.7 ZM0 574.39 L8.07 574.39 L8.07 576.51
								 L0 576.51 L0 574.39 ZM0 579.08 L8.07 579.08 L8.07 581.2 L0 581.2 L0 579.08 ZM0 583.77 L8.07 583.77
								 L8.07 585.89 L0 585.89 L0 583.77 ZM0 588.47 L8.07 588.47 L8.07 590.58 L0 590.58 L0 588.47 ZM0 593.16
								 L8.07 593.16 L8.07 595.28 L0 595.28 L0 593.16 Z" class="st3"/>
				</g>
				<g id="shape23-44" v:mID="23" v:groupContext="shape" transform="translate(5.9952E-15,-18.735)">
					<title>工作表.23</title>
					<path d="M0 560.31 L8.07 560.31 L8.07 562.43 L0 562.43 L0 560.31 ZM0 565.01 L8.07 565.01 L8.07 567.12 L0 567.12
								 L0 565.01 ZM0 569.7 L8.07 569.7 L8.07 571.82 L0 571.82 L0 569.7 ZM0 574.39 L8.07 574.39 L8.07 576.51
								 L0 576.51 L0 574.39 ZM0 579.08 L8.07 579.08 L8.07 581.2 L0 581.2 L0 579.08 ZM0 583.77 L8.07 583.77
								 L8.07 585.89 L0 585.89 L0 583.77 ZM0 588.47 L8.07 588.47 L8.07 590.58 L0 590.58 L0 588.47 ZM0 593.16
								 L8.07 593.16 L8.07 595.28 L0 595.28 L0 593.16 Z" class="st3"/>
				</g>
				<g id="shape24-46" v:mID="24" v:groupContext="shape" transform="translate(20.4997,-30.3934)">
					<title>工作表.24</title>
					<path d="M0 583.63 L7.92 583.63 L7.92 586.12 L0 586.12 L0 583.63 ZM0 592.79 L7.92 592.79 L7.92 595.28 L0 595.28
								 L0 592.79 Z" class="st5"/>
				</g>
				<g id="shape25-48" v:mID="25" v:groupContext="shape" transform="translate(20.315,-30.3934)">
					<title>工作表.25</title>
					<rect x="0" y="583.632" width="2.484" height="11.6438" class="st5"/>
				</g>
				<g id="shape26-50" v:mID="26" v:groupContext="shape" transform="translate(42.957,-30.3421)">
					<title>工作表.26</title>
					<path d="M0 583.53 L2.48 583.53 L2.48 595.28 L0 595.28 L0 583.53 ZM6.68 583.53 L9.16 583.53 L9.16 595.28 L6.68
								 595.28 L6.68 583.53 Z" class="st5"/>
				</g>
				<g id="shape27-52" v:mID="27" v:groupContext="shape" transform="translate(42.957,-30.3421)">
					<title>工作表.27</title>
					<rect x="0" y="592.792" width="9.15956" height="2.484" class="st5"/>
				</g>
				<g id="shape28-54" v:mID="28" v:groupContext="shape" transform="translate(31.115,-34.3528)">
					<title>工作表.28</title>
					<path d="M0 587.59 L7.92 587.59 L7.92 590.08 L0 590.08 L0 587.59 ZM0 592.79 L9.16 592.79 L9.16 595.28 L0 595.28
								 L0 592.79 Z" class="st5"/>
				</g>
				<g id="shape29-56" v:mID="29" v:groupContext="shape" transform="translate(30.9304,-30.3934)">
					<title>工作表.29</title>
					<path d="M0 583.63 L2.48 583.63 L2.48 595.28 L0 595.28 L0 583.63 ZM7.56 583.63 L10.04 583.63 L10.04 591.32 L7.56
								 591.32 L7.56 583.63 Z" class="st5"/>
				</g>
			</g>
			<g id="shape30-58" v:mID="30" v:groupContext="shape">
				<title>圆角矩形</title>
				<v:userDefs>
					<v:ud v:nameU="CTypeTopLeftSnip" v:prompt="" v:val="VT0(0):5"/>
					<v:ud v:nameU="CTypeTopRightSnip" v:prompt="" v:val="VT0(0):5"/>
					<v:ud v:nameU="CTypeBotLeftSnip" v:prompt="" v:val="VT0(0):5"/>
					<v:ud v:nameU="CTypeBotRightSnip" v:prompt="" v:val="VT0(0):5"/>
					<v:ud v:nameU="CornerLockHoriz" v:prompt="" v:val="VT0(1):5"/>
					<v:ud v:nameU="CornerLockVert" v:prompt="" v:val="VT0(1):5"/>
					<v:ud v:nameU="CornerLockDiag" v:prompt="" v:val="VT0(0):5"/>
					<v:ud v:nameU="TopLeftOffset" v:prompt="" v:val="VT0(0.15748031496063):24"/>
					<v:ud v:nameU="TopRightOffset" v:prompt="" v:val="VT0(0.15748031496063):24"/>
					<v:ud v:nameU="BotLeftOffset" v:prompt="" v:val="VT0(0.15748031496063):24"/>
					<v:ud v:nameU="BotRightOffset" v:prompt="" v:val="VT0(0.15748031496063):24"/>
					<v:ud v:nameU="visVersion" v:prompt="" v:val="VT0(15):26"/>
					<v:ud v:nameU="TopLeftOffset" v:prompt="" v:val="VT0(0.57480315207278):1"/>
					<v:ud v:nameU="TopRightOffset" v:prompt="" v:val="VT0(0.57480315207278):1"/>
					<v:ud v:nameU="BotLeftOffset" v:prompt="" v:val="VT0(0.57480315207278):1"/>
					<v:ud v:nameU="BotRightOffset" v:prompt="" v:val="VT0(0.57480315207278):1"/>
				</v:userDefs>
				<path d="M41.39 595.28 L372.47 595.28 A41.3851 41.3851 -180 0 0 413.86 553.89 L413.86 537.45 A41.3851 41.3851 -180
							 0 0 372.47 496.06 L41.39 496.06 A41.3851 41.3851 -180 0 0 -0 537.45 L0 553.89 A41.3851 41.3851 -180
							 0 0 41.39 595.28 Z" class="st8"/>
			</g>
		</g>
		<g id="group72-60" transform="translate(70.8661,-340.157)" v:mID="72" v:groupContext="group">
			<title>工作表.72</title>
			<g id="group58-61" v:mID="58" v:groupContext="group">
				<title>工作表.58</title>
				<g id="group32-62" transform="translate(51.324,-28.6492)" v:mID="32" v:groupContext="group">
					<title>工作表.32</title>
					<g id="shape33-63" v:mID="33" v:groupContext="shape">
						<title>工作表.33</title>
						<path d="M97.02 567.73 C93.89 549.05 80.5 549.03 71.14 549.53 C70.29 547.05 67.17 527.85 44.08 530.8 C25.17
									 532.63 24.56 547.31 24.56 554.79 C19 554.79 2.69 554.79 1.3 571.47 C0 588.85 12.15 594.06 23.08
									 595.28 L73.07 595.28 C77.58 594.84 99.45 591.8 97.02 567.73 ZM62.22 557.45 C64.56 557.45 66.46
									 559.22 66.46 561.4 C66.46 563.59 64.56 565.36 62.22 565.36 L33.05 565.36 C30.71 565.36 28.81
									 563.59 28.81 561.4 C28.81 559.22 30.71 557.45 33.05 557.45 C33.05 557.45 62.22 557.45 62.22
									 557.45 ZM33.4 586.91 C31.06 586.91 29.16 585.14 29.16 582.95 C29.16 580.77 31.06 579 33.4 579
									 L62.57 579 C64.91 579 66.8 580.77 66.8 582.95 C66.8 585.14 64.9 586.91 62.57 586.91 L33.4 586.91
									 ZM62.57 575.94 L33.4 575.94 C31.06 575.94 29.16 574.17 29.16 571.99 C29.16 569.81 31.06 568.04
									 33.4 568.04 L62.57 568.04 C64.91 568.04 66.8 569.81 66.8 571.99 C66.8 574.17 64.9 575.94 62.57
									 575.94 C62.57 575.94 62.57 575.94 62.57 575.94 ZM59.17 574.14 C60.31 574.14 61.24 573.21 61.24
									 572.07 C61.24 570.92 60.31 570 59.17 570 C58.03 570 57.1 570.92 57.1 572.07 C57.1 573.21 58.03
									 574.14 59.17 574.14 ZM59.17 585.1 C60.31 585.1 61.24 584.17 61.24 583.02 C61.24 581.88 60.31
									 580.95 59.17 580.95 C58.03 580.95 57.1 581.88 57.1 583.02 C57.1 584.17 58.03 585.1 59.17 585.1
									 ZM59.2 563.56 C60.34 563.56 61.27 562.63 61.27 561.49 C61.27 560.35 60.34 559.42 59.2 559.42
									 C58.06 559.42 57.13 560.34 57.13 561.49 C57.13 562.63 58.06 563.56 59.2 563.56 Z" class="st9"/>
					</g>
				</g>
				<g id="group40-65" transform="translate(35.2463,-124.31)" v:mID="40" v:groupContext="group">
					<title>工作表.40</title>
					<g id="shape41-66" v:mID="41" v:groupContext="shape" transform="translate(0.0160756,0)">
						<title>工作表.41</title>
						<path d="M42.86 580.8 C42.84 581.21 42.3 581.66 41.19 582.25 C38.9 583.44 27.05 588.31 24.53 589.63 C22 590.94
									 20.6 590.93 18.61 589.97 C16.61 589.02 4 583.93 1.73 582.84 C0.6 582.3 0.02 581.84 0 581.41
									 L0 585.74 C0 586.18 0.6 586.63 1.73 587.18 C4 588.26 16.62 593.36 18.61 594.31 C20.6 595.26
									 22 595.28 24.53 593.96 C27.05 592.64 38.9 587.77 41.19 586.58 C42.35 585.97 42.87 585.5 42.87
									 585.07 L42.87 580.8 L42.86 580.8 Z" class="st9"/>
					</g>
					<g id="shape42-68" v:mID="42" v:groupContext="shape" transform="translate(0.0160756,-7.0661)">
						<title>工作表.42</title>
						<path d="M42.86 580.8 C42.84 581.21 42.3 581.66 41.19 582.25 C38.9 583.44 27.05 588.31 24.53 589.63 C22 590.94
									 20.6 590.93 18.61 589.98 C16.61 589.02 4 583.93 1.73 582.84 C0.6 582.3 0.02 581.84 0 581.41
									 L0 585.74 C0 586.18 0.6 586.63 1.73 587.18 C4 588.26 16.61 593.36 18.61 594.31 C20.6 595.26
									 22 595.28 24.53 593.96 C27.05 592.65 38.9 587.77 41.19 586.58 C42.35 585.97 42.87 585.5 42.87
									 585.07 L42.87 580.8 L42.86 580.8 Z" class="st9"/>
					</g>
					<g id="shape43-70" v:mID="43" v:groupContext="shape" transform="translate(0,-14.3948)">
						<title>工作表.43</title>
						<path d="M42.87 580.8 C42.89 580.37 42.32 579.98 41.18 579.56 C38.95 578.75 27.17 574.06 24.91 573.23 C22.66
									 572.41 21.74 572.44 19.09 573.39 C16.43 574.34 3.89 579.26 1.66 580.13 C0.54 580.57 0 580.98
									 0.02 581.41 L0.02 585.74 C0.02 586.18 0.61 586.63 1.75 587.18 C4.02 588.26 16.63 593.36 18.63
									 594.31 C20.62 595.26 22.02 595.28 24.54 593.96 C27.07 592.65 38.92 587.77 41.21 586.58 C42.37
									 585.97 42.88 585.5 42.88 585.07 L42.88 580.8 L42.87 580.8 L42.87 580.8 ZM15.37 584.91 L25.3
									 583.38 L22.3 587.78 L15.37 584.91 L15.37 584.91 ZM37.34 580.94 L31.46 583.27 L30.82 583.52 L24.95
									 581.19 L31.46 578.62 L37.33 580.94 L37.34 580.94 ZM20.09 576.69 L19.13 574.92 L22.13 576.09
									 L24.95 575.16 L24.19 576.99 L27.07 578.07 L23.35 578.46 L22.52 580.46 L21.18 578.23 L16.89 577.84
									 L20.09 576.69 ZM12.69 579.19 C15.62 579.19 18 580.11 18 581.24 C18 582.38 15.62 583.3 12.69
									 583.3 C9.76 583.3 7.38 582.38 7.38 581.24 C7.38 580.11 9.76 579.19 12.69 579.19 L12.69 579.19
									 Z" class="st9"/>
					</g>
				</g>
				<g id="group44-72" transform="translate(99.3993,-128.08)" v:mID="44" v:groupContext="group">
					<title>工作表.44</title>
					<g id="shape45-73" v:mID="45" v:groupContext="shape">
						<title>工作表.45</title>
						<path d="M29.3 569.11 C29.1 569.11 28.96 569.14 28.81 569.17 L28.81 569.2 L28.84 569.2 C28.93 569.38 29.1
									 569.52 29.22 569.68 C29.32 569.87 29.4 570.07 29.5 570.25 L29.52 570.23 C29.69 570.11 29.77
									 569.92 29.77 569.63 C29.7 569.55 29.69 569.47 29.63 569.38 C29.56 569.26 29.4 569.2 29.31 569.11
									 L29.3 569.11 ZM10.31 592.68 L8.65 592.68 A90.834 90.834 -180 0 0 8.17 584.8 L8.15 584.8 L5.64
									 592.68 L4.38 592.68 L1.88 584.8 L1.86 584.8 A130.198 130.198 -180 0 0 1.51 592.68 L0 592.68
									 C0.1 589.17 0.34 585.87 0.73 582.8 L2.79 582.8 L5.17 590.06 L5.19 590.06 L7.59 582.8 L9.55 582.8
									 C9.98 586.4 10.23 589.7 10.31 592.68 L10.31 592.68 ZM17.48 585.39 C16.81 589.05 15.92 591.7
									 14.82 593.36 C13.96 594.64 13.01 595.28 11.99 595.28 C11.72 595.28 11.38 595.19 10.98 595.03
									 L10.98 594.15 C11.17 594.18 11.41 594.19 11.67 594.19 C12.15 594.19 12.53 594.06 12.82 593.8
									 C13.17 593.48 13.35 593.11 13.35 592.72 C13.35 592.44 13.21 591.88 12.94 591.03 L11.13 585.39
									 L12.75 585.39 L14.05 589.61 C14.34 590.57 14.47 591.23 14.42 591.61 C15.13 589.71 15.63 587.64
									 15.91 585.39 L17.48 585.39 ZM39.5 592.68 L34.8 592.68 L34.8 582.8 L36.38 582.8 L36.38 591.47
									 L39.5 591.47 L39.5 592.68 ZM33.57 592.92 L31.75 592.03 C31.91 591.89 32.07 591.75 32.21 591.58
									 C32.98 590.68 33.36 589.33 33.36 587.56 C33.36 584.29 32.08 582.65 29.51 582.65 C28.26 582.65
									 27.27 583.07 26.57 583.9 C25.8 584.81 25.41 586.14 25.41 587.91 C25.41 589.64 25.75 590.92 26.44
									 591.73 C27.06 592.46 28.01 592.83 29.27 592.83 C29.74 592.83 30.17 592.77 30.56 592.65 L32.93
									 594.03 L33.57 592.92 L33.57 592.92 ZM27.69 590.7 C27.28 590.06 27.08 589.02 27.08 587.6 C27.08
									 585.11 27.84 583.87 29.35 583.87 C30.14 583.87 30.73 584.17 31.1 584.76 C31.5 585.41 31.7 586.43
									 31.7 587.84 C31.7 590.35 30.94 591.61 29.43 591.61 C28.63 591.61 28.05 591.31 27.68 590.71 L27.69
									 590.7 ZM24.72 589.94 C24.72 590.78 24.42 591.47 23.8 592.01 C23.19 592.54 22.37 592.81 21.33
									 592.81 C20.36 592.81 19.43 592.51 18.52 591.89 L18.94 591.04 C19.73 591.44 20.43 591.63 21.07
									 591.63 C21.66 591.63 22.13 591.5 22.47 591.24 A1.34677 1.34677 -180 0 0 23 590.14 C23 589.55
									 22.59 589.05 21.85 588.63 C21.15 588.25 19.77 587.45 19.77 587.45 C19.02 586.91 18.64 586.32
									 18.64 585.35 C18.64 584.55 18.92 583.9 19.48 583.41 C20.04 582.92 20.77 582.67 21.66 582.67
									 C22.57 582.67 23.41 582.92 24.16 583.4 L23.78 584.25 A4.86911 4.86911 -180 0 0 21.88 583.84
									 C21.37 583.84 20.98 583.97 20.71 584.21 A1.22353 1.22353 -180 0 0 20.27 585.15 C20.27 585.73
									 20.69 586.24 21.46 586.67 C22.16 587.05 23.58 587.86 23.58 587.86 C24.35 588.41 24.73 588.99
									 24.73 589.95 L24.72 589.94 Z" class="st9"/>
					</g>
					<g id="shape46-75" v:mID="46" v:groupContext="shape" transform="translate(25.0671,-11.878)">
						<title>工作表.46</title>
						<path d="M16.41 591.37 C15.46 591.34 14.72 591.44 14.1 591.71 C13.92 591.78 13.63 591.78 13.61 592 C13.71
									 592.1 13.72 592.25 13.81 592.39 C13.95 592.62 14.19 592.94 14.42 593.11 C14.67 593.31 14.92
									 593.5 15.19 593.67 C15.65 593.95 16.18 594.12 16.63 594.41 C16.89 594.58 17.16 594.79 17.42
									 594.97 C17.55 595.06 17.63 595.22 17.8 595.28 L17.8 595.24 C17.72 595.13 17.69 594.98 17.61
									 594.86 C17.49 594.74 17.37 594.63 17.26 594.51 A5.75683 5.75683 -180 0 0 16.01 593.31 C15.63
									 593.05 14.8 592.68 14.64 592.24 L14.62 592.22 C14.88 592.2 15.19 592.1 15.44 592.03 C15.84 591.92
									 16.21 591.95 16.63 591.84 C16.82 591.79 17.02 591.73 17.21 591.67 L17.21 591.57 C16.99 591.35
									 16.83 591.06 16.61 590.86 A15.838 15.838 -180 0 0 14.64 589.39 C14.26 589.15 13.79 589 13.39
									 588.79 C13.25 588.72 13.01 588.69 12.93 588.57 C12.71 588.31 12.59 587.96 12.44 587.65 A31.5974
									 31.5974 0 0 1 11.46 585.57 C11.25 585.1 11.12 584.64 10.85 584.21 C9.62 582.18 8.29 580.95 6.23
									 579.74 C5.79 579.49 5.26 579.39 4.7 579.25 C4.41 579.24 4.11 579.22 3.81 579.21 C3.62 579.12
									 3.43 578.89 3.26 578.79 C2.58 578.36 0.82 577.43 0.32 578.66 C0 579.43 0.8 580.2 1.08 580.59
									 C1.28 580.86 1.54 581.18 1.68 581.48 C1.77 581.69 1.79 581.9 1.87 582.12 C2.06 582.64 2.24 583.23
									 2.49 583.72 C2.62 583.97 2.77 584.23 2.93 584.46 C3.03 584.59 3.2 584.65 3.23 584.86 C3.07 585.11
									 3.05 585.46 2.96 585.76 C2.53 587.11 2.7 588.78 3.3 589.78 C3.5 590.07 3.95 590.73 4.56 590.48
									 C5.1 590.26 4.98 589.58 5.13 588.99 C5.17 588.84 5.14 588.75 5.22 588.65 L5.22 588.68 C5.39
									 589.02 5.55 589.33 5.71 589.67 C6.07 590.26 6.72 590.86 7.26 591.27 C7.54 591.48 7.77 591.86
									 8.13 591.99 L8.13 591.95 L8.1 591.95 C8.02 591.85 7.92 591.8 7.82 591.71 A6.15336 6.15336 0
									 0 1 7.2 591 A15.6469 15.6469 0 0 1 5.86 588.82 C5.67 588.45 5.5 588.05 5.35 587.68 C5.27 587.53
									 5.27 587.32 5.15 587.25 C4.98 587.51 4.71 587.73 4.58 588.06 C4.36 588.57 4.33 589.2 4.25 589.86
									 C4.2 589.87 4.22 589.86 4.2 589.88 C3.82 589.79 3.69 589.4 3.54 589.06 C3.19 588.21 3.13 586.85
									 3.44 585.87 C3.52 585.62 3.88 584.84 3.73 584.6 C3.66 584.37 3.42 584.24 3.29 584.05 A4.42614
									 4.42614 0 0 1 2.87 583.29 C2.58 582.62 2.44 581.88 2.13 581.22 C1.98 580.91 1.73 580.58 1.53
									 580.3 C1.3 579.98 1.05 579.75 0.87 579.37 C0.81 579.24 0.73 579.02 0.82 578.88 C0.85 578.79
									 0.9 578.75 0.99 578.72 C1.15 578.59 1.59 578.76 1.75 578.83 C2.19 579.01 2.56 579.18 2.93 579.43
									 C3.1 579.55 3.28 579.77 3.49 579.83 L3.74 579.83 C4.12 579.92 4.55 579.86 4.91 579.96 C5.54
									 580.17 6.12 580.46 6.63 580.78 A10.6331 10.6331 0 0 1 10.35 584.87 C10.5 585.14 10.56 585.39
									 10.69 585.68 C10.94 586.27 11.25 586.86 11.5 587.43 C11.75 588 11.99 588.57 12.35 589.04 C12.53
									 589.29 13.25 589.42 13.57 589.55 C13.81 589.65 14.18 589.75 14.39 589.88 C14.8 590.13 15.2 590.42
									 15.59 590.69 C15.78 590.83 16.38 591.13 16.41 591.37 Z" class="st9"/>
					</g>
				</g>
				<g id="shape56-77" v:mID="56" v:groupContext="shape">
					<title>圆角矩形</title>
					<v:userDefs>
						<v:ud v:nameU="CTypeTopLeftSnip" v:prompt="" v:val="VT0(0):5"/>
						<v:ud v:nameU="CTypeTopRightSnip" v:prompt="" v:val="VT0(0):5"/>
						<v:ud v:nameU="CTypeBotLeftSnip" v:prompt="" v:val="VT0(0):5"/>
						<v:ud v:nameU="CTypeBotRightSnip" v:prompt="" v:val="VT0(0):5"/>
						<v:ud v:nameU="CornerLockHoriz" v:prompt="" v:val="VT0(1):5"/>
						<v:ud v:nameU="CornerLockVert" v:prompt="" v:val="VT0(1):5"/>
						<v:ud v:nameU="CornerLockDiag" v:prompt="" v:val="VT0(0):5"/>
						<v:ud v:nameU="TopLeftOffset" v:prompt="" v:val="VT0(0.15748031496063):24"/>
						<v:ud v:nameU="TopRightOffset" v:prompt="" v:val="VT0(0.15748031496063):24"/>
						<v:ud v:nameU="BotLeftOffset" v:prompt="" v:val="VT0(0.15748031496063):24"/>
						<v:ud v:nameU="BotRightOffset" v:prompt="" v:val="VT0(0.15748031496063):24"/>
						<v:ud v:nameU="visVersion" v:prompt="" v:val="VT0(15):26"/>
						<v:ud v:nameU="TopLeftOffset" v:prompt="" v:val="VT0(0.28420789057688):1"/>
						<v:ud v:nameU="TopRightOffset" v:prompt="" v:val="VT0(0.28420789057688):1"/>
						<v:ud v:nameU="BotLeftOffset" v:prompt="" v:val="VT0(0.28420789057688):1"/>
						<v:ud v:nameU="BotRightOffset" v:prompt="" v:val="VT0(0.28420789057688):1"/>
					</v:userDefs>
					<path d="M20.46 595.28 L184.17 595.28 A20.4626 20.4626 -180 0 0 204.63 574.81 L204.63 430.28 A20.4626 20.4626
								 -180 0 0 184.17 409.81 L20.46 409.81 A20.4626 20.4626 -180 0 0 0 430.28 L0 574.81 A20.4626 20.4626
								 -180 0 0 20.46 595.28 Z" class="st8"/>
				</g>
			</g>
			<g id="group70-79" transform="translate(226.504,0)" v:mID="70" v:groupContext="group">
				<title>工作表.70</title>
				<g id="group34-80" transform="translate(52.5912,-24.19)" v:mID="34" v:groupContext="group">
					<title>工作表.34</title>
					<g id="shape35-81" v:mID="35" v:groupContext="shape">
						<title>工作表.35</title>
						<path d="M97.02 567.73 C93.89 549.05 80.5 549.03 71.14 549.53 C70.29 547.05 67.17 527.85 44.08 530.8 C25.17
									 532.63 24.56 547.31 24.56 554.79 C19 554.79 2.69 554.79 1.3 571.47 C0 588.85 12.15 594.06 23.08
									 595.28 L73.07 595.28 C77.58 594.84 99.45 591.8 97.02 567.73 ZM62.22 557.45 C64.56 557.45 66.46
									 559.22 66.46 561.4 C66.46 563.59 64.56 565.36 62.22 565.36 L33.05 565.36 C30.71 565.36 28.81
									 563.59 28.81 561.4 C28.81 559.22 30.71 557.45 33.05 557.45 C33.05 557.45 62.22 557.45 62.22
									 557.45 ZM33.4 586.91 C31.06 586.91 29.16 585.14 29.16 582.95 C29.16 580.77 31.06 579 33.4 579
									 L62.57 579 C64.91 579 66.8 580.77 66.8 582.95 C66.8 585.14 64.9 586.91 62.57 586.91 L33.4 586.91
									 ZM62.57 575.94 L33.4 575.94 C31.06 575.94 29.16 574.17 29.16 571.99 C29.16 569.81 31.06 568.04
									 33.4 568.04 L62.57 568.04 C64.91 568.04 66.8 569.81 66.8 571.99 C66.8 574.17 64.9 575.94 62.57
									 575.94 C62.57 575.94 62.57 575.94 62.57 575.94 ZM59.17 574.14 C60.31 574.14 61.24 573.21 61.24
									 572.07 C61.24 570.92 60.31 570 59.17 570 C58.03 570 57.1 570.92 57.1 572.07 C57.1 573.21 58.03
									 574.14 59.17 574.14 ZM59.17 585.1 C60.31 585.1 61.24 584.17 61.24 583.02 C61.24 581.88 60.31
									 580.95 59.17 580.95 C58.03 580.95 57.1 581.88 57.1 583.02 C57.1 584.17 58.03 585.1 59.17 585.1
									 ZM59.2 563.56 C60.34 563.56 61.27 562.63 61.27 561.49 C61.27 560.35 60.34 559.42 59.2 559.42
									 C58.06 559.42 57.13 560.34 57.13 561.49 C57.13 562.63 58.06 563.56 59.2 563.56 Z" class="st9"/>
					</g>
				</g>
				<g id="group49-83" transform="translate(42.5197,-113.085)" v:mID="49" v:groupContext="group">
					<title>工作表.49</title>
					<g id="shape50-84" v:mID="50" v:groupContext="shape">
						<title>工作表.50</title>
						<path d="M29.95 595.09 C30.68 595.28 31.52 595.28 32.25 595.09 L46.62 591.49 C47.58 591.21 48.31 590.57 48.31
									 589.74 L48.31 556.51 C48.31 555.95 47.82 555.4 47.1 555.21 L32.49 551.43 C31.64 551.24 30.8
									 551.24 30.07 551.43 L1.21 559.92 C0.48 560.11 0 560.66 0 561.21 L0 586.23 C0 586.78 0.48 587.34
									 1.21 587.52 L29.95 595.09 ZM31.4 588.91 C31.4 589.46 30.8 589.92 30.19 589.83 L6.04 587.34 C5.43
									 587.24 4.95 586.88 4.95 586.41 L4.95 586.04 C4.95 585.68 5.19 585.4 5.8 585.21 L10.39 583.55
									 C10.87 583.37 11.11 583.09 11.11 582.72 L11.11 563.06 C11.11 562.6 11.47 562.23 12.08 562.14
									 L30.19 559 C30.92 558.91 31.64 559.28 31.64 559.92 L31.64 588.91 L31.4 588.91 Z" class="st10"/>
					</g>
				</g>
				<g id="group51-86" transform="translate(128.915,-113.085)" v:mID="51" v:groupContext="group">
					<title>工作表.51</title>
					<g id="shape52-87" v:mID="52" v:groupContext="shape">
						<title>工作表.52</title>
						<path d="M25.19 551.24 L28.46 551.24 L28.46 555.34 C34.32 555.39 40.18 555.29 46.03 555.39 A1.90441 1.74051
									 0 0 1 48.14 557.35 C48.24 567.44 48.14 577.55 48.2 587.62 C48.14 588.66 48.31 589.81 47.67 590.73
									 C46.87 591.25 45.84 591.2 44.9 591.25 L28.46 591.25 L28.46 595.28 L25.06 595.28 C16.71 593.87
									 8.35 592.57 0 591.2 L0 555.35 C8.39 553.98 16.79 552.64 25.19 551.24 Z" class="st11"/>
					</g>
					<g id="shape53-89" v:mID="53" v:groupContext="shape" transform="translate(4.46629,-5.61522)">
						<title>工作表.53</title>
						<path d="M24 562.5 L42.07 562.5 L42.07 595.28 L24 595.28 L24 591.18 L38.24 591.18 L38.24 589.11 L24 589.11
									 L24 586.57 L38.24 586.57 L38.24 584.5 L24 584.5 L24 581.96 L38.24 581.96 L38.24 579.89 L24 579.89
									 L24 577.3 L38.24 577.3 L38.24 575.3 L24 575.3 L24 572.71 L38.24 572.71 L38.24 570.69 L24 570.69
									 L24 568.13 L38.24 568.13 L38.24 566.08 L24 566.08 L24 562.5 ZM6.87 571.55 C7.91 571.49 8.95
									 571.45 9.99 571.4 C10.72 574.86 11.47 578.31 12.26 581.76 C12.88 578.2 13.56 574.65 14.23 571.11
									 C15.32 571.07 16.41 571.01 17.51 570.95 C16.27 575.91 15.18 580.92 13.83 585.85 C12.92 586.3
									 11.56 585.85 10.46 585.9 C9.7 582.51 8.86 579.13 8.21 575.73 C7.57 579.04 6.73 582.32 6 585.6
									 C4.95 585.55 3.89 585.5 2.83 585.43 C1.93 580.92 0.86 576.44 0 571.92 C0.94 571.88 1.88 571.85
									 2.83 571.81 C3.4 575.08 4.04 578.33 4.53 581.59 C5.29 578.24 6.08 574.9 6.87 571.55 Z"
								class="st4"/>
					</g>
				</g>
				<g id="shape57-91" v:mID="57" v:groupContext="shape">
					<title>圆角矩形.57</title>
					<v:userDefs>
						<v:ud v:nameU="CTypeTopLeftSnip" v:prompt="" v:val="VT0(0):5"/>
						<v:ud v:nameU="CTypeTopRightSnip" v:prompt="" v:val="VT0(0):5"/>
						<v:ud v:nameU="CTypeBotLeftSnip" v:prompt="" v:val="VT0(0):5"/>
						<v:ud v:nameU="CTypeBotRightSnip" v:prompt="" v:val="VT0(0):5"/>
						<v:ud v:nameU="CornerLockHoriz" v:prompt="" v:val="VT0(1):5"/>
						<v:ud v:nameU="CornerLockVert" v:prompt="" v:val="VT0(1):5"/>
						<v:ud v:nameU="CornerLockDiag" v:prompt="" v:val="VT0(0):5"/>
						<v:ud v:nameU="TopLeftOffset" v:prompt="" v:val="VT0(0.15748031496063):24"/>
						<v:ud v:nameU="TopRightOffset" v:prompt="" v:val="VT0(0.15748031496063):24"/>
						<v:ud v:nameU="BotLeftOffset" v:prompt="" v:val="VT0(0.15748031496063):24"/>
						<v:ud v:nameU="BotRightOffset" v:prompt="" v:val="VT0(0.15748031496063):24"/>
						<v:ud v:nameU="visVersion" v:prompt="" v:val="VT0(15):26"/>
						<v:ud v:nameU="TopLeftOffset" v:prompt="" v:val="VT0(0.28420789057688):1"/>
						<v:ud v:nameU="TopRightOffset" v:prompt="" v:val="VT0(0.28420789057688):1"/>
						<v:ud v:nameU="BotLeftOffset" v:prompt="" v:val="VT0(0.28420789057688):1"/>
						<v:ud v:nameU="BotRightOffset" v:prompt="" v:val="VT0(0.28420789057688):1"/>
					</v:userDefs>
					<path d="M20.46 595.28 L184.17 595.28 A20.4626 20.4626 -180 0 0 204.63 574.81 L204.63 430.28 A20.4626 20.4626
								 -180 0 0 184.17 409.81 L20.46 409.81 A20.4626 20.4626 -180 0 0 0 430.28 L0 574.81 A20.4626 20.4626
								 -180 0 0 20.46 595.28 Z" class="st8"/>
				</g>
			</g>
			<g id="group71-93" transform="translate(455.464,0)" v:mID="71" v:groupContext="group">
				<title>工作表.71</title>
				<g id="group36-94" transform="translate(52.5912,-16.4984)" v:mID="36" v:groupContext="group">
					<title>工作表.36</title>
					<g id="shape37-95" v:mID="37" v:groupContext="shape">
						<title>工作表.37</title>
						<path d="M97.02 567.73 C93.89 549.05 80.5 549.03 71.14 549.53 C70.29 547.05 67.17 527.85 44.08 530.8 C25.17
									 532.63 24.56 547.31 24.56 554.79 C19 554.79 2.69 554.79 1.3 571.47 C0 588.85 12.15 594.06 23.08
									 595.28 L73.07 595.28 C77.58 594.84 99.45 591.8 97.02 567.73 ZM62.22 557.45 C64.56 557.45 66.46
									 559.22 66.46 561.4 C66.46 563.59 64.56 565.36 62.22 565.36 L33.05 565.36 C30.71 565.36 28.81
									 563.59 28.81 561.4 C28.81 559.22 30.71 557.45 33.05 557.45 C33.05 557.45 62.22 557.45 62.22
									 557.45 ZM33.4 586.91 C31.06 586.91 29.16 585.14 29.16 582.95 C29.16 580.77 31.06 579 33.4 579
									 L62.57 579 C64.91 579 66.8 580.77 66.8 582.95 C66.8 585.14 64.9 586.91 62.57 586.91 L33.4 586.91
									 ZM62.57 575.94 L33.4 575.94 C31.06 575.94 29.16 574.17 29.16 571.99 C29.16 569.81 31.06 568.04
									 33.4 568.04 L62.57 568.04 C64.91 568.04 66.8 569.81 66.8 571.99 C66.8 574.17 64.9 575.94 62.57
									 575.94 C62.57 575.94 62.57 575.94 62.57 575.94 ZM59.17 574.14 C60.31 574.14 61.24 573.21 61.24
									 572.07 C61.24 570.92 60.31 570 59.17 570 C58.03 570 57.1 570.92 57.1 572.07 C57.1 573.21 58.03
									 574.14 59.17 574.14 ZM59.17 585.1 C60.31 585.1 61.24 584.17 61.24 583.02 C61.24 581.88 60.31
									 580.95 59.17 580.95 C58.03 580.95 57.1 581.88 57.1 583.02 C57.1 584.17 58.03 585.1 59.17 585.1
									 ZM59.2 563.56 C60.34 563.56 61.27 562.63 61.27 561.49 C61.27 560.35 60.34 559.42 59.2 559.42
									 C58.06 559.42 57.13 560.34 57.13 561.49 C57.13 562.63 58.06 563.56 59.2 563.56 Z" class="st9"/>
					</g>
				</g>
				<g id="group47-97" transform="translate(115.658,-107.18)" v:mID="47" v:groupContext="group">
					<title>工作表.47</title>
					<g id="shape48-98" v:mID="48" v:groupContext="shape">
						<title>工作表.48</title>
						<path d="M34.22 588.24 C34.37 587 33.82 586.59 31.81 586.64 C30.8 586.67 29.79 586.83 28.68 586.94 C28.58
									 586.67 28.47 586.38 28.35 586.05 C30.31 585.6 32.21 585.29 34.23 585.6 C35.64 585.82 36.56 586.36
									 36.61 587.27 C36.7 589.06 36.64 590.85 36.64 592.7 C35.85 592.61 34.79 593.11 34.61 592.26 C33.42
									 592.46 32.24 592.76 31.02 592.82 C29.29 592.91 28.19 592.33 27.87 591.4 C27.5 590.35 28.17 589.29
									 29.69 588.94 C31.1 588.61 32.62 588.48 34.22 588.24 L34.22 588.24 ZM34.27 589.36 C33.18 589.46
									 32.24 589.5 31.34 589.64 C30.43 589.79 29.96 590.42 30.22 590.97 C30.51 591.55 31.32 591.83
									 32.31 591.68 C33.97 591.42 34.27 591.17 34.27 590.07 C34.26 589.9 34.27 589.72 34.27 589.36
									 L34.27 589.36 ZM15.69 592.69 C15.1 592.69 14.57 592.69 13.99 592.69 C13.89 592.52 13.78 592.34
									 13.67 592.14 C13.55 592.14 13.43 592.13 13.37 592.16 C12.36 592.63 11.27 592.9 9.99 592.86 C8.39
									 592.81 7.38 592.38 6.99 591.54 C6.54 590.59 7.03 589.52 8.39 589.08 C9.44 588.75 10.67 588.63
									 11.83 588.45 C12.3 588.38 12.81 588.4 13.29 588.38 C13.54 587.08 12.92 586.61 10.97 586.64 C10.44
									 586.64 9.91 586.69 9.39 586.76 C8.87 586.81 8.37 586.91 7.87 586.99 C7.31 586.08 7.28 585.99
									 8.65 585.81 C10.05 585.62 11.53 585.51 12.94 585.58 C14.7 585.66 15.56 586.2 15.67 587.3 C15.83
									 588.91 15.76 590.53 15.78 592.14 C15.78 592.32 15.72 592.49 15.69 592.69 L15.69 592.69 ZM13.29
									 589.37 C12.29 589.46 11.34 589.49 10.43 589.64 C9.51 589.78 9.09 590.37 9.34 590.97 C9.57 591.51
									 10.3 591.83 11.21 591.69 C13.47 591.34 13.61 591.1 13.29 589.37 L13.29 589.37 ZM19.25 567.12
									 C17.06 565.74 14.53 564.53 13.36 562.61 C12.81 561.71 12.8 560.78 13.87 560.08 C15.64 558.93
									 17.58 557.88 19.47 556.79 C20.28 556.32 21.16 555.9 21.95 555.41 C24.13 554.05 25.15 552.44
									 24.44 550.47 C25.77 551.36 25.97 552.42 25.57 553.52 C24.88 555.4 22.87 556.73 20.65 557.96
									 C19.58 558.54 18.45 559.1 17.49 559.75 C15.26 561.27 15.1 562.77 16.88 564.51 C17.74 565.34
									 18.63 566.17 19.5 567 C19.42 567.04 19.33 567.08 19.25 567.12 L19.25 567.12 ZM17.05 585.69 C17.19
									 585.65 17.22 585.63 17.25 585.63 C19.68 585.58 19.66 585.59 20.33 587.06 C20.92 588.34 21.56
									 589.61 22.18 590.88 C22.27 590.89 22.37 590.9 22.47 590.91 C23.15 589.16 23.83 587.42 24.52
									 585.65 C25.2 585.65 25.97 585.65 26.98 585.65 C26.41 587.02 25.91 588.34 25.3 589.63 C24.89
									 590.49 24.28 591.3 23.83 592.15 C23.58 592.62 23.14 592.8 22.39 592.72 C22.29 592.72 22.18 592.71
									 22.07 592.73 C20.87 592.88 20.33 592.56 20 591.82 C19.09 589.77 18.05 587.75 17.05 585.69 L17.05
									 585.69 ZM34.74 576.75 C35.63 577.21 34.23 578.53 28.88 578.99 C0 580.86 1.48 578.68 1.44 578.21
									 C1.32 576.88 6.79 576.24 8.99 576.46 C7.52 576.82 3.48 578.38 9.08 578.5 C13.09 578.64 17.12
									 578.82 21.13 578.73 C24.92 578.64 34.7 577.7 34.74 576.75 ZM1.52 595.28 C1.14 594.98 0.78 594.71
									 0.33 594.36 C2.62 593.68 2.8 592.43 2.77 591.07 C2.71 588.69 2.76 586.31 2.76 583.93 C2.76 583.69
									 2.76 583.44 2.76 583.14 C3.63 583.14 4.42 583.14 5.28 583.14 C5.3 583.31 5.33 583.49 5.33 583.66
									 C5.33 586.31 5.34 588.96 5.31 591.61 C5.29 593.55 4.44 594.37 1.52 595.28 L1.52 595.28 ZM30.31
									 556.7 C28.74 557.36 27.34 557.9 26.03 558.52 C25.07 558.98 24.15 559.49 23.37 560.06 C22.12
									 560.99 22.12 561.7 23.16 562.74 C23.57 563.16 24 563.57 24.47 563.96 C25.44 564.8 25.41 565.68
									 24.53 566.47 C23.8 567.11 22.78 567.63 21.72 568.31 C21.67 568.03 21.63 567.98 21.66 567.95
									 C23.04 566.53 23 566.19 21.35 564.84 C19.32 563.16 18.95 561.67 20.51 560.27 C21.24 559.61 22.24
									 558.98 23.34 558.59 C25.33 557.88 27.49 557.35 29.59 556.76 C29.73 556.72 29.91 556.73 30.31
									 556.7 L30.31 556.7 ZM27.26 575.62 C15.35 577.83 10.73 575.16 10.73 575.16 L12.27 574.31 C12.87
									 574.58 16.02 575.83 22.76 574.93 L27.26 575.62 L27.26 575.62 ZM13.5 567.34 C13.5 567.34 6.05
									 569.03 14.03 569.15 C15.11 569.16 29.66 568.45 29.66 568.45 C29.66 568.45 20.27 570.14 11.88
									 569.99 C0.65 569.28 13.49 567.34 13.5 567.34 ZM11.77 570.74 C11.77 570.74 10.67 572.08 13.84
									 572.13 C21.39 572.25 26.91 571.41 26.91 571.41 C26.91 571.41 28.07 572.35 28.07 572.45 C28.07
									 572.45 17.95 573.92 12.18 572.99 C8.5 572.4 10.93 571 11.77 570.74 L11.77 570.74 ZM37.43 578.53
									 C18.21 582.03 8.5 580.37 8.5 580.37 C8.5 580.37 12.62 582.56 22.96 581.3 C26.8 580.84 33.67
									 579.56 37.43 578.53 ZM29.77 572.97 C30.64 572.62 31.46 572.35 32.14 571.99 C33.11 571.47 34.09
									 570.94 34.85 570.31 C35.57 569.71 35.67 568.97 34.97 568.29 C34.26 567.59 31.33 567.54 30.93
									 567.5 C31.12 567.4 31.5 567.23 31.5 567.23 C31.5 567.23 32.94 566.99 34.82 567.13 C37.43 567.49
									 38.33 569.25 36.74 570.61 C35.42 571.74 32.12 572.88 29.77 572.97 L29.77 572.97 Z" class="st7"/>
					</g>
				</g>
				<g id="group54-100" transform="translate(46.0908,-112.138)" v:mID="54" v:groupContext="group">
					<title>工作表.54</title>
					<g id="shape55-101" v:mID="55" v:groupContext="shape">
						<title>工作表.55</title>
						<path d="M24.15 560.39 C14.11 560.39 14.09 563.42 14.09 563.42 L14.09 569.49 L26.17 569.49 L26.17 571.01
									 L6.04 571.01 C6.04 571.01 0 570.31 0 578.59 C0 586.87 6.04 586.17 6.04 586.17 L12.08 586.17
									 L12.08 583.71 A8.82212 6.64815 0 0 1 20.88 577.07 L27.42 577.07 C31.17 577.07 34.22 576.29 34.22
									 573.47 L34.22 563.42 C34.22 563.42 34.19 560.39 24.15 560.39 ZM18.12 563.42 C19.22 563.42 20.13
									 564.11 20.13 564.94 C20.13 565.77 19.22 566.46 18.12 566.46 C17.01 566.46 16.1 565.77 16.1 564.94
									 C16.1 564.11 17.01 563.42 18.12 563.42 ZM36.23 569.49 L36.23 573.47 C36.23 577.13 32.28 578.59
									 27.42 578.59 L20.88 578.59 A6.80328 5.12679 -180 0 0 14.09 583.71 L14.09 592.24 C14.09 592.24
									 14.22 595.28 24.15 595.28 C34.09 595.28 34.22 592.24 34.22 592.24 L34.22 586.17 L22.14 586.17
									 L22.14 584.66 L42.27 584.66 C42.27 584.66 48.31 585.42 48.31 577.07 C48.31 568.73 42.27 569.49
									 42.27 569.49 L36.23 569.49 ZM30.19 589.21 C31.3 589.21 32.2 589.89 32.2 590.73 C32.2 591.56
									 31.3 592.24 30.19 592.24 C29.09 592.24 28.18 591.56 28.18 590.73 C28.18 589.89 29.09 589.21
									 30.19 589.21 Z" class="st7"/>
					</g>
				</g>
				<g id="shape69-103" v:mID="69" v:groupContext="shape">
					<title>圆角矩形.69</title>
					<v:userDefs>
						<v:ud v:nameU="CTypeTopLeftSnip" v:prompt="" v:val="VT0(0):5"/>
						<v:ud v:nameU="CTypeTopRightSnip" v:prompt="" v:val="VT0(0):5"/>
						<v:ud v:nameU="CTypeBotLeftSnip" v:prompt="" v:val="VT0(0):5"/>
						<v:ud v:nameU="CTypeBotRightSnip" v:prompt="" v:val="VT0(0):5"/>
						<v:ud v:nameU="CornerLockHoriz" v:prompt="" v:val="VT0(1):5"/>
						<v:ud v:nameU="CornerLockVert" v:prompt="" v:val="VT0(1):5"/>
						<v:ud v:nameU="CornerLockDiag" v:prompt="" v:val="VT0(0):5"/>
						<v:ud v:nameU="TopLeftOffset" v:prompt="" v:val="VT0(0.15748031496063):24"/>
						<v:ud v:nameU="TopRightOffset" v:prompt="" v:val="VT0(0.15748031496063):24"/>
						<v:ud v:nameU="BotLeftOffset" v:prompt="" v:val="VT0(0.15748031496063):24"/>
						<v:ud v:nameU="BotRightOffset" v:prompt="" v:val="VT0(0.15748031496063):24"/>
						<v:ud v:nameU="visVersion" v:prompt="" v:val="VT0(15):26"/>
						<v:ud v:nameU="TopLeftOffset" v:prompt="" v:val="VT0(0.28420789057688):1"/>
						<v:ud v:nameU="TopRightOffset" v:prompt="" v:val="VT0(0.28420789057688):1"/>
						<v:ud v:nameU="BotLeftOffset" v:prompt="" v:val="VT0(0.28420789057688):1"/>
						<v:ud v:nameU="BotRightOffset" v:prompt="" v:val="VT0(0.28420789057688):1"/>
					</v:userDefs>
					<path d="M20.46 595.28 L184.17 595.28 A20.4626 20.4626 -180 0 0 204.63 574.81 L204.63 430.28 A20.4626 20.4626
								 -180 0 0 184.17 409.81 L20.46 409.81 A20.4626 20.4626 -180 0 0 0 430.28 L0 574.81 A20.4626 20.4626
								 -180 0 0 20.46 595.28 Z" class="st8"/>
				</g>
			</g>
		</g>
	</g>
</svg>
